<?xml version="1.0" encoding="UTF-8"?>
<svg width="500px" height="500px" viewBox="0 0 500 500" version="1.1" xmlns="http://www.w3.org/2000/svg" xmlns:xlink="http://www.w3.org/1999/xlink">
    <!-- Generator: Sketch 41.2 (35397) - http://www.bohemiancoding.com/sketch -->
    <title>Personal Branding Flatten</title>
    <desc>Created with Sketch.</desc>
    <defs></defs>
    <g id="Work-Place" stroke="none" stroke-width="1" fill="none" fill-rule="evenodd">
        <g id="Personal-Branding-Flatten">
            <path d="M174.320833,0 L325.679167,0 C375.875,0 400.966667,0 427.9875,8.54166667 C457.4875,19.2791667 480.720833,42.5125 491.458333,72.0125 C500,99.0291667 500,124.129167 500,174.320833 L500,325.679167 C500,375.875 500,400.966667 491.458333,427.9875 C480.720833,457.4875 457.4875,480.720833 427.9875,491.454167 C400.966667,500 375.875,500 325.679167,500 L174.320833,500 C124.125,500 99.0291667,500 72.0125,491.454167 C42.5125,480.720833 19.2791667,457.4875 8.54166667,427.9875 C0,400.966667 0,375.875 0,325.679167 L0,174.320833 C0,124.129167 0,99.0291667 8.54166667,72.0125 C19.2791667,42.5125 42.5125,19.2791667 72.0125,8.54166667 C99.0291667,0 124.125,0 174.320833,0 L174.320833,0" id="Path" stroke="#979797" fill="#3C3C3C"></path>
            <g id="Bird" transform="translate(137.000000, 96.000000)" fill="#FFFFFF">
                <path d="M171.733675,377.773381 L156.10957,401.832393 C154.605774,404.148036 151.504565,404.80296 149.193353,403.302041 C146.877428,401.798062 146.216844,398.705071 147.722865,396.386002 L163.421702,372.211913 C127.644558,348.243057 90.9432681,323.242653 79.7689762,314.20076 C52.8880989,292.44958 38,272.159289 38,241 C38,219.532072 45.9586082,199.922976 59.0863526,184.962185 L0,159 L64,130.878788 L64,90 C64,40.2943725 104.294373,0 154,0 C203.705627,0 244,40.2943725 244,90 L244,168.875535 C230.949743,160.715979 215.52561,156 199,156 C152.055796,156 114,194.055796 114,241 C114,263.738091 122.928219,282.390884 137.470191,297.643913 C152.012163,312.896943 243,373 243,373 L243,425 C243,425 209.012173,402.685343 171.733675,377.773381 L171.733675,377.773381 Z M96.7896319,134.104034 L96.7896319,72.1878073 C96.7896319,69.3384079 94.4771609,67.0285133 91.6245834,67.0285133 C88.7720058,67.0285133 86.4595348,69.3384079 86.4595348,72.1878073 L86.4595348,134.104034 C86.4595348,136.953434 88.7720058,139.263328 91.6245834,139.263328 C94.4771609,139.263328 96.7896319,136.953434 96.7896319,134.104034 Z M122.614875,134.104034 L122.614875,72.1878073 C122.614875,69.3384079 120.302404,67.0285133 117.449826,67.0285133 C114.597249,67.0285133 112.284778,69.3384079 112.284778,72.1878073 L112.284778,134.104034 C112.284778,136.953434 114.597249,139.263328 117.449826,139.263328 C120.302404,139.263328 122.614875,136.953434 122.614875,134.104034 Z" id="Combined-Shape"></path>
            </g>
        </g>
    </g>
</svg>