<?xml version="1.0" encoding="UTF-8"?>
<svg width="50px" height="50px" viewBox="0 0 50 50" version="1.1" xmlns="http://www.w3.org/2000/svg" xmlns:xlink="http://www.w3.org/1999/xlink">
    <!-- Generator: Sketch 41.2 (35397) - http://www.bohemiancoding.com/sketch -->
    <title>Logo</title>
    <desc>Created with Sketch.</desc>
    <defs></defs>
    <g id="Symbols" stroke="none" stroke-width="1" fill="none" fill-rule="evenodd">
        <g id="Header" fill="#3C3C3C">
            <g id="Logo">
                <path d="M17.4320833,0 L32.5679167,0 C37.5875,0 40.0966667,0 42.79875,0.854166667 C45.74875,1.92791667 48.0720833,4.25125 49.1458333,7.20125 C50,9.90291667 50,12.4129167 50,17.4320833 L50,32.5679167 C50,37.5875 50,40.0966667 49.1458333,42.79875 C48.0720833,45.74875 45.74875,48.0720833 42.79875,49.1454167 C40.0966667,50 37.5875,50 32.5679167,50 L17.4320833,50 C12.4125,50 9.90291667,50 7.20125,49.1454167 C4.25125,48.0720833 1.92791667,45.74875 0.854166667,42.79875 C0,40.0966667 0,37.5875 0,32.5679167 L0,17.4320833 C0,12.4129167 0,9.90291667 0.854166667,7.20125 C1.92791667,4.25125 4.25125,1.92791667 7.20125,0.854166667 C9.90291667,0 12.4125,0 17.4320833,0 Z M17.0515894,12.9858658 C17.0515425,13.035733 17.05155,17.4952658 17.05155,17.4952658 L9.79102839,20.0106392 L17.05155,22.4211572 C15.7878209,23.8601497 15.0167885,25.6764014 15.0167885,27.6704828 C15.0167885,30.298769 16.3562558,32.6181223 18.3978697,33.9992011 L28.1617148,40.5216313 L26.7494667,42.6152355 C26.6016869,42.8343133 26.6607489,43.1308639 26.8813853,43.2775998 C27.1020217,43.4243357 27.400682,43.3656909 27.5484618,43.146613 L28.9596657,41.0545569 L34.5537346,44.7906553 L34.5537346,40.1407494 L25.797399,34.080959 C23.609061,32.7492019 22.1477409,30.3424955 22.1477409,27.5946897 C22.1477409,23.4035397 25.5474337,20.0059417 29.7411679,20.0059417 C31.5677559,20.0059417 33.24371,20.650484 34.5537346,21.7244054 L34.5537346,12.899046 C34.5356342,11.4412779 34.1362697,5.84759216 25.7130038,5.83217453 C17.2151545,5.81662038 17.0543049,11.5392085 17.0515894,12.9858658 Z M23.0674579,18.1492266 L23.0674579,12.4195987 C23.0674579,12.1559199 22.8521833,11.942166 22.5866286,11.942166 C22.321074,11.942166 22.1057994,12.1559199 22.1057994,12.4195987 L22.1057994,18.1492266 C22.1057994,18.4129054 22.321074,18.6266593 22.5866286,18.6266593 C22.8521833,18.6266593 23.0674579,18.4129054 23.0674579,18.1492266 Z M20.6633117,18.1492266 L20.6633117,12.4195987 C20.6633117,12.1559199 20.4480371,11.942166 20.1824824,11.942166 C19.9169277,11.942166 19.7016532,12.1559199 19.7016532,12.4195987 L19.7016532,18.1492266 C19.7016532,18.4129054 19.9169277,18.6266593 20.1824824,18.6266593 C20.4480371,18.6266593 20.6633117,18.4129054 20.6633117,18.1492266 Z" id="Oval-27"></path>
            </g>
        </g>
    </g>
</svg>