<?xml version="1.0" encoding="UTF-8"?>
<svg width="500px" height="500px" viewBox="0 0 500 500" version="1.1" xmlns="http://www.w3.org/2000/svg" xmlns:xlink="http://www.w3.org/1999/xlink">
    <!-- Generator: Sketch 41.2 (35397) - http://www.bohemiancoding.com/sketch -->
    <title>Personal Branding Flatten</title>
    <desc>Created with Sketch.</desc>
    <defs></defs>
    <g id="Work-Place" stroke="none" stroke-width="1" fill="none" fill-rule="evenodd">
        <path d="M174.320833,0 L325.679167,0 C375.875,0 400.966667,0 427.9875,8.54166667 C457.4875,19.2791667 480.720833,42.5125 491.458333,72.0125 C500,99.0291667 500,124.129167 500,174.320833 L500,325.679167 C500,375.875 500,400.966667 491.458333,427.9875 C480.720833,457.4875 457.4875,480.720833 427.9875,491.454167 C400.966667,500 375.875,500 325.679167,500 L174.320833,500 C124.125,500 99.0291667,500 72.0125,491.454167 C42.5125,480.720833 19.2791667,457.4875 8.54166667,427.9875 C0,400.966667 0,375.875 0,325.679167 L0,174.320833 C0,124.129167 0,99.0291667 8.54166667,72.0125 C19.2791667,42.5125 42.5125,19.2791667 72.0125,8.54166667 C99.0291667,0 124.125,0 174.320833,0 Z M265.09643,377.778671 L253.442384,395.724129 C252.3207,397.451353 250.007504,397.939856 248.283566,396.820331 C246.556114,395.698523 246.063384,393.391481 247.186727,391.661703 L258.896515,373.630409 C232.210285,355.752198 204.834733,337.104561 196.49981,330.360273 C176.44932,314.136211 165.344262,299.001817 165.344262,275.760309 C165.344262,259.747523 171.280601,245.121228 181.072607,233.962073 L137,214.597051 L184.737705,193.621624 L184.737705,163.130406 C184.737705,126.055307 214.793343,96 251.868852,96 C288.944361,96 319,126.055307 319,163.130406 L319,221.963147 C309.265792,215.876988 297.760906,212.35937 285.434426,212.35937 C250.418668,212.35937 222.032787,240.744938 222.032787,275.760309 C222.032787,292.720501 228.69236,306.633496 239.539241,318.01063 C250.386122,329.387765 318.254098,374.218238 318.254098,374.218238 L318.254098,413.004695 C318.254098,413.004695 292.902522,396.36034 265.09643,377.778671 L265.09643,377.778671 Z M209.195545,196.027314 L209.195545,149.844409 C209.195545,147.719061 207.470669,145.996126 205.342927,145.996126 C203.215185,145.996126 201.490309,147.719061 201.490309,149.844409 L201.490309,196.027314 C201.490309,198.152662 203.215185,199.875597 205.342927,199.875597 C207.470669,199.875597 209.195545,198.152662 209.195545,196.027314 Z M228.458636,196.027314 L228.458636,149.844409 C228.458636,147.719061 226.73376,145.996126 224.606018,145.996126 C222.478276,145.996126 220.7534,147.719061 220.7534,149.844409 L220.7534,196.027314 C220.7534,198.152662 222.478276,199.875597 224.606018,199.875597 C226.73376,199.875597 228.458636,198.152662 228.458636,196.027314 Z" id="Combined-Shape" stroke="#979797" fill="#3C3C3C"></path>
        <g id="Personal-Branding-Flatten"></g>
    </g>
</svg>